HIERARCHY
ROOT root
{
	OFFSET 0.000000 0.000000 0.000000
	CHANNELS 6 Xposition Yposition Zposition Zrotation Yrotation Xrotation
	JOINT lhip
	{
		OFFSET 0.058581 -0.082280 -0.017664
		CHANNELS 3 Zrotation Yrotation Xrotation
		JOINT lknee
		{
			OFFSET 0.043451 -0.386469 0.008037
			CHANNELS 3 Zrotation Yrotation Xrotation
			JOINT lankle
			{
				OFFSET -0.014790 -0.426874 -0.037428
				CHANNELS 3 Zrotation Yrotation Xrotation
				JOINT ltoe
				{
					OFFSET 0.041054 -0.060286 0.122042
					CHANNELS 3 Zrotation Yrotation Xrotation
					End Site
					{
						OFFSET 0.000000 0.000000 0.000000
					}
				}
			}
		}
	}
	JOINT rhip
	{
		OFFSET -0.060310 -0.090513 -0.013543
		CHANNELS 3 Zrotation Yrotation Xrotation
		JOINT rknee
		{
			OFFSET -0.043257 -0.383688 -0.004843
			CHANNELS 3 Zrotation Yrotation Xrotation
			JOINT rankle
			{
				OFFSET 0.019056 -0.420046 -0.034562
				CHANNELS 3 Zrotation Yrotation Xrotation
				JOINT rtoe
				{
					OFFSET -0.034840 -0.062106 0.130323
					CHANNELS 3 Zrotation Yrotation Xrotation
					End Site
					{
						OFFSET 0.000000 0.000000 0.000000
					}
				}
			}
		}
	}
	JOINT lowerback
	{
		OFFSET 0.004439 0.124404 -0.038385
		CHANNELS 3 Zrotation Yrotation Xrotation
		JOINT upperback
		{
			OFFSET 0.004488 0.137956 0.026820
			CHANNELS 3 Zrotation Yrotation Xrotation
			JOINT chest
			{
				OFFSET -0.002265 0.056032 0.002855
				CHANNELS 3 Zrotation Yrotation Xrotation
				JOINT lowerneck
				{
					OFFSET -0.013390 0.211636 -0.033468
					CHANNELS 3 Zrotation Yrotation Xrotation
					JOINT upperneck
					{
						OFFSET 0.010113 0.088937 0.050410
						CHANNELS 3 Zrotation Yrotation Xrotation
						End Site
						{
							OFFSET 0.000000 0.000000 0.000000
						}
					}
				}
				JOINT lclavicle
				{
					OFFSET 0.071702 0.114000 -0.018898
					CHANNELS 3 Zrotation Yrotation Xrotation
					JOINT lshoulder
					{
						OFFSET 0.122921 0.045205 -0.019046
						CHANNELS 3 Zrotation Yrotation Xrotation
						JOINT lelbow
						{
							OFFSET 0.255332 -0.015649 -0.022946
							CHANNELS 3 Zrotation Yrotation Xrotation
							JOINT lwrist
							{
								OFFSET 0.265709 0.012698 -0.007375
								CHANNELS 3 Zrotation Yrotation Xrotation
								End Site
								{
									OFFSET 0.000000 0.000000 0.000000
								}
							}
						}
					}
				}
				JOINT rclavicle
				{
					OFFSET -0.082954 0.112472 -0.023707
					CHANNELS 3 Zrotation Yrotation Xrotation
					JOINT rshoulder
					{
						OFFSET -0.113228 0.046853 -0.008472
						CHANNELS 3 Zrotation Yrotation Xrotation
						JOINT relbow
						{
							OFFSET -0.260127 -0.014369 -0.031269
							CHANNELS 3 Zrotation Yrotation Xrotation
							JOINT rwrist
							{
								OFFSET -0.269108 0.006794 -0.006027
								CHANNELS 3 Zrotation Yrotation Xrotation
								End Site
								{
									OFFSET 0.000000 0.000000 0.000000
								}
							}
						}
					}
				}
			}
		}
	}
}
MOTION
Frames: 6
Frame Time: 0.033333
-1.997420 0.770923 0.973084 86.557146 3.820665 89.568011 8.615266 1.574294 -0.589175 -4.692370 -5.406508 7.572868 16.604821 12.955896 -16.596965 0.000000 -0.000000 0.000000 -0.981379 -1.511236 -3.545416 2.616369 0.590192 11.892732 -1.713692 -1.801579 -12.941972 0.000000 -0.000000 0.000000 -2.217480 3.289353 4.479918 2.741304 -1.057731 6.005461 1.336225 0.165388 1.870837 3.049635 -0.547281 6.766891 8.030037 -6.714949 0.295742 -19.226773 -1.867756 5.687797 -66.556430 -6.209136 12.644448 13.163095 -31.917187 22.820734 -3.892246 8.427548 -1.138793 19.056170 1.810815 4.517321 67.200453 2.718193 6.493173 -19.090163 17.516687 4.006553 6.612164 -7.184466 -4.573963 
-1.998744 0.769196 0.972770 86.483336 3.522648 90.163979 8.146846 0.665833 -0.905999 -4.268189 -5.000368 6.799552 14.896596 13.004403 -15.634628 0.000000 -0.000000 0.000000 -0.895002 0.097859 -4.367269 1.900950 1.952599 11.715753 -1.235100 -2.378348 -14.816419 0.000000 -0.000000 0.000000 -2.342300 2.937594 3.861609 2.991192 -0.434468 6.196071 1.328751 -0.368158 4.164470 3.936202 2.040737 3.436217 2.512869 -4.658632 2.552648 -19.619020 -0.086119 2.239418 -66.143573 -6.773321 14.489002 12.840989 -32.631734 22.937976 -5.074653 8.053984 -0.780633 19.529625 0.815099 1.403899 66.675259 3.021732 10.006696 -19.744534 17.038221 2.498061 6.994811 -7.657992 -3.549387 
-1.999315 0.766615 0.972009 86.559600 3.400415 90.102105 8.038937 0.604100 -0.749720 -4.089994 -5.093396 6.601051 13.393309 12.875927 -15.331566 0.000000 -0.000000 0.000000 -0.596546 1.147791 -4.647562 1.009006 3.211954 11.878219 -1.104250 -1.755926 -16.835630 0.000000 -0.000000 0.000000 -2.361064 2.816659 4.300995 3.104405 -0.577065 5.990827 1.479670 -0.155174 3.443185 3.997468 1.832689 5.011511 4.113760 -5.020771 1.236152 -19.141348 -0.669772 2.935416 -66.361955 -6.330768 14.612456 13.101266 -34.176684 22.680658 -5.426720 8.617037 -1.728673 19.294027 1.063968 2.084097 66.801667 2.602551 9.472514 -19.997862 17.544618 3.186944 7.176536 -8.146006 -3.600014 
-1.997897 0.763001 0.969974 87.897745 2.964532 89.715205 7.415809 0.103360 -0.427603 -3.514188 -5.877114 6.548315 12.044616 12.810294 -14.723992 0.000000 -0.000000 0.000000 -0.423177 1.443229 -4.073171 -0.058581 5.077557 11.733437 -3.688045 -2.051868 -21.972769 0.000000 -0.000000 0.000000 -2.136735 2.490140 4.866136 3.218756 -1.574146 5.667370 1.333094 -0.143183 1.313026 3.204757 2.038244 8.180427 7.263069 -6.363652 6.055796 -18.436775 -2.316006 6.728917 -66.738661 -6.202323 13.471281 14.179946 -36.386274 22.447151 -5.821390 8.851267 -2.912357 19.198797 1.854949 5.684680 67.182800 2.205682 7.056304 -20.801935 18.728931 5.008772 9.044919 -8.062763 -5.097781 
-1.996766 0.761795 0.969289 88.499176 2.657298 89.561798 7.049602 -0.140491 -0.327979 -3.313543 -6.231049 6.629519 11.610539 12.851880 -14.745351 0.000000 -0.000000 0.000000 -0.632630 0.709801 -4.267840 -0.201477 4.271848 12.836221 -3.659735 -1.575708 -22.900789 0.000000 -0.000000 0.000000 -2.037482 2.396857 4.992065 3.095056 -2.045730 5.627364 1.222712 -0.146883 1.115135 3.161225 3.113677 9.987979 8.621355 -6.175046 5.398297 -18.091894 -2.619493 6.973299 -66.848313 -5.912274 13.425158 13.993768 -36.955100 22.946074 -5.646200 9.210923 -3.340746 19.114229 1.802179 5.965497 67.636156 1.839409 6.586022 -21.242187 18.294578 5.953373 8.875164 -10.291438 -5.119637 
-1.996224 0.757307 0.968748 88.658880 2.278198 89.268134 6.877124 -0.406833 -0.045226 -3.167867 -6.407144 6.760634 10.287170 13.052717 -14.410803 0.000000 -0.000000 0.000000 -0.463843 0.988446 -4.586046 -0.607694 4.108731 14.247124 -3.670025 -1.726149 -23.678433 0.000000 -0.000000 0.000000 -1.763680 2.156239 5.532889 3.059019 -2.062946 5.161445 1.152231 -0.142557 1.232978 3.136288 3.849687 11.315321 8.747067 -6.012627 6.288342 -18.024158 -2.427765 6.934393 -66.909017 -6.020196 13.416960 14.132738 -37.279098 23.119833 -6.144220 8.651893 -3.303403 18.966835 1.149003 5.989519 67.954867 1.719390 6.340055 -21.465297 18.497651 6.682307 9.518783 -10.098099 -4.968000 
